<?xml version="1.0" encoding="utf-8"?>
<!DOCTYPE svg PUBLIC "-//W3C//DTD SVG 1.1//EN" "http://www.w3.org/Graphics/SVG/1.1/DTD/svg11.dtd">
<svg version="1.1" xmlns="http://www.w3.org/2000/svg" xmlns:xlink="http://www.w3.org/1999/xlink" x="0px" y="0px" width="32px" height="32px" viewBox="0 0 32 32" enable-background="new 0 0 32 32" xml:space="preserve">

	<g id="btc">
		<path fill="none" d="M217.021 167.042c18.631-9.483 30.288-26.184 27.565-54.007-3.667-38.023-36.526-50.773-78.006-54.404l-.008-52.741h-32.139l-.009 51.354c-8.456 0-17.076.166-25.657.338l-.007-51.685-32.11-.003-.006 52.728c-6.959.142-13.793.277-20.466.277v-.156l-44.33-.018.006 34.282s23.734-.446 23.343-.013c13.013.009 17.262 7.559 18.484 14.076l.01 60.083v84.397c-.573 4.09-2.984 10.625-12.083 10.637.414.364-23.379-.004-23.379-.004l-6.375 38.335h41.817c7.792.009 15.448.13 22.959.19l.028 53.338 32.102.009-.009-52.779c8.832.18 17.357.258 25.684.247l-.009 52.532h32.138l.018-53.249c54.022-3.1 91.842-16.697 96.544-67.385 3.79-40.809-15.434-59.025-46.105-66.379zM109.535 95.321c18.126 0 75.132-5.767 75.14 32.064-.008 36.269-56.996 32.032-75.14 32.032V95.321zm-.014 167.126l.014-70.672c21.778-.006 90.085-6.261 90.094 35.32.009 39.876-68.316 35.336-90.108 35.352z"/>

	</g>
	<g id="cloud">
		<path fill="none" d="M24,6c-0.375,0-0.733,0.062-1.104,0.111C21.508,3.646,18.928,2,16.001,2c-2.987,0-5.565,1.666-6.94,4.101
			C8.708,6.054,8.355,6,8.001,6c-4.41,0-8,3.589-8,8.001s3.59,8,8,8H24c4.414,0,8-3.588,8-8S28.414,6,24,6z M24,18.001H8.001
			c-2.207,0-4-1.795-4-4c0-2.193,1.94-3.886,4.004-3.945c0.009,0.943,0.172,1.869,0.5,2.744l3.746-1.402
			c-0.168-0.444-0.25-0.915-0.25-1.396c0-2.205,1.793-4.001,4-4.001c1.293,0,2.466,0.642,3.199,1.64
			c-1.928,1.461-3.199,3.756-3.199,6.361h4c0-2.205,1.796-4,3.999-4c2.211,0,4,1.795,4,4S26.211,18.001,24,18.001z"/>
	</g>
	<g id="sun">
		<path fill="none" d="M16.001,12c2.203,0,4,1.795,4,4s-1.797,4-4,4s-4-1.795-4-4S13.798,12,16.001,12 M16.001,8c-4.418,0-8,3.582-8,8
			s3.582,8,8,8S24,20.418,24,16S20.419,8,16.001,8L16.001,8z M14,2c0,1.104,0.896,2,2,2s2-0.896,2-2s-0.896-2-2-2S14,0.896,14,2z
			 M4,6c0,1.104,0.896,2,2,2s2-0.896,2-2S7.104,4,6,4S4,4.896,4,6z M2,14c1.105,0,2,0.895,2,2c0,1.107-0.895,2-2,2s-2-0.893-2-2
			C0,14.895,0.895,14,2,14z M4,26c0,1.104,0.896,2,2,2s2-0.896,2-2s-0.896-2-2-2S4,24.896,4,26z M14,30c0-1.109,0.895-2,2-2
			c1.108,0,2,0.891,2,2c0,1.102-0.892,2-2,2C14.895,32,14,31.102,14,30z M24,26c0,1.104,0.896,2,2,2s2-0.896,2-2s-0.896-2-2-2
			S24,24.896,24,26z M30,18c-1.104,0-2-0.896-2-2c0-1.107,0.896-2,2-2s2,0.893,2,2C32,17.104,31.104,18,30,18z M24,6
			c0,1.104,0.896,2,2,2s2-0.896,2-2s-0.896-2-2-2S24,4.896,24,6z"/>
	</g>

	<script>document.getElementById(location.hash.substring(1)).getElementsByTagName('path')[0].setAttribute('fill', '#ccc');</script>

</svg>