<?xml version="1.0" encoding="utf-8"?>
<!DOCTYPE svg PUBLIC "-//W3C//DTD SVG 1.1//EN" "http://www.w3.org/Graphics/SVG/1.1/DTD/svg11.dtd">

<svg version="1.1" xmlns="http://www.w3.org/2000/svg" xmlns:xlink="http://www.w3.org/1999/xlink" x="0px" y="0px" width="32px" height="32px" viewBox="0 0 32 32" enable-background="new 0 0 32 32" xml:space="preserve" style="position:absolute">
	
		<symbol id="btc" viewBox="0 0 273.6 360">
			<path d="M217.021 167.042c18.631-9.483 30.288-26.184 27.565-54.007-3.667-38.023-36.526-50.773-78.006-54.404l-.008-52.741h-32.139l-.009 51.354c-8.456 0-17.076.166-25.657.338l-.007-51.685-32.11-.003-.006 52.728c-6.959.142-13.793.277-20.466.277v-.156l-44.33-.018.006 34.282s23.734-.446 23.343-.013c13.013.009 17.262 7.559 18.484 14.076l.01 60.083v84.397c-.573 4.09-2.984 10.625-12.083 10.637.414.364-23.379-.004-23.379-.004l-6.375 38.335h41.817c7.792.009 15.448.13 22.959.19l.028 53.338 32.102.009-.009-52.779c8.832.18 17.357.258 25.684.247l-.009 52.532h32.138l.018-53.249c54.022-3.1 91.842-16.697 96.544-67.385 3.79-40.809-15.434-59.025-46.105-66.379zM109.535 95.321c18.126 0 75.132-5.767 75.14 32.064-.008 36.269-56.996 32.032-75.14 32.032V95.321zm-.014 167.126l.014-70.672c21.778-.006 90.085-6.261 90.094 35.32.009 39.876-68.316 35.336-90.108 35.352z"></path>
		</symbol>
	
		<symbol id="favorites" viewBox="0 0 140 132.5">
			<path d="M27.9 131.7c.6-2.9 1.2-5.6 1.8-8.4 2-9.3 4-18.7 5.9-28 .8-3.8 1.6-7.7 2.4-11.5.1-.3 0-.4-.2-.6l-33.3-30-2.7-2.4c-.1-.1-.2-.2-.3-.2 0 0 0-.1.1-.1.9-.1 1.9-.2 2.8-.3 3.6-.4 7.1-.8 10.7-1.1 3.2-.3 6.4-.7 9.6-1 3.5-.4 7-.7 10.5-1.1 3.2-.3 6.4-.7 9.6-1 1.8-.2 3.6-.4 5.5-.6.2 0 .4-.3.5-.4 1.6-3.5 3.1-6.9 4.7-10.4L70.5 1c.1-.1.1-.3.3-.5l.3.6c6.5 14.6 13 29.3 19.6 43.9.2.4.3.5.8.6 6.1.6 12.2 1.3 18.3 1.9 5.9.6 11.9 1.3 17.8 1.9 4.1.4 8.2.9 12.4 1.3-.2.2-.2.3-.4.4-6.4 5.8-12.8 11.6-19.3 17.4-5.6 5-11.1 10-16.7 15-.2.2-.3.3-.2.6 2.3 10.6 4.5 21.2 6.7 31.8l3.3 15.6c0 .1 0 .3.1.5-.2-.1-.4-.2-.5-.3-13.9-8-27.8-16-41.6-24-.4-.2-.7-.2-1.1 0-13.9 8-27.8 16-41.6 24-.4-.2-.6-.1-.8 0zm13.9-19.2l.6-.3c9.3-5.3 18.5-10.7 27.8-16 .3-.2.6-.2.9 0 9.3 5.4 18.5 10.7 27.8 16 .2.1.3.2.5.3 0-.2 0-.3-.1-.5-.1-.7-.3-1.4-.4-2.1-2.1-9.8-4.1-19.6-6.2-29.3-.1-.5 0-.7.3-1 8-7.1 15.9-14.3 23.8-21.5.1-.1.3-.2.4-.3-.4-.1-.7-.2-1-.2-3.5-.4-7-.7-10.5-1.1-3.5-.4-7-.7-10.5-1.1-3.5-.4-7-.7-10.5-1.1-.4 0-.6-.2-.8-.6-4.3-9.8-8.7-19.5-13-29.2-.1-.2-.2-.3-.3-.6-.1.3-.2.4-.3.6-4.3 9.7-8.7 19.5-13 29.2-.1.3-.3.5-.7.5-2.9.3-5.8.6-8.6.9-3.2.3-6.4.7-9.5 1-3.2.3-6.4.7-9.6 1-1.6.2-3.1.3-4.8.5l.4.4c8 7.2 15.9 14.3 23.9 21.5.3.3.4.5.3.9-2.1 9.9-4.2 19.8-6.3 29.8-.3.8-.4 1.5-.6 2.3z"></path>
		</symbol>
	
		<symbol id="favorites2" viewBox="0 0 139 132">
			<title>favorites</title><g fill="none" fill-rule="evenodd"><path d="M26.9 131.7c.6-2.9 1.2-5.6 1.8-8.4 2-9.3 4-18.7 5.9-28L37 83.8c.1-.3 0-.4-.2-.6l-33.3-30-2.7-2.4c-.1-.1-.2-.2-.3-.2 0 0 0-.1.1-.1l2.8-.3c3.6-.4 7.1-.8 10.7-1.1l9.6-1L34.2 47l9.6-1c1.8-.2 3.6-.4 5.5-.6.2 0 .4-.3.5-.4l4.7-10.4L69.5 1c.1-.1.1-.3.3-.5l.3.6c6.5 14.6 13 29.3 19.6 43.9.2.4.3.5.8.6l18.3 1.9 17.8 1.9c4.1.4 8.2.9 12.4 1.3-.2.2-.2.3-.4.4-6.4 5.8-12.8 11.6-19.3 17.4l-16.7 15c-.2.2-.3.3-.2.6 2.3 10.6 4.5 21.2 6.7 31.8l3.3 15.6c0 .1 0 .3.1.5-.2-.1-.4-.2-.5-.3-13.9-8-27.8-16-41.6-24-.4-.2-.7-.2-1.1 0-13.9 8-27.8 16-41.6 24-.4-.2-.6-.1-.8 0z" fill="#000"></path><path d="M26.9 131.7c.6-2.9 1.2-5.6 1.8-8.4 2-9.3 4-18.7 5.9-28L37 83.8c.1-.3 0-.4-.2-.6l-33.3-30-2.7-2.4c-.1-.1-.2-.2-.3-.2 0 0 0-.1.1-.1l2.8-.3c3.6-.4 7.1-.8 10.7-1.1l9.6-1L34.2 47l9.6-1c1.8-.2 3.6-.4 5.5-.6.2 0 .4-.3.5-.4l4.7-10.4L69.5 1c.1-.1.1-.3.3-.5l.3.6c6.5 14.6 13 29.3 19.6 43.9.2.4.3.5.8.6l18.3 1.9 17.8 1.9c4.1.4 8.2.9 12.4 1.3-.2.2-.2.3-.4.4-6.4 5.8-12.8 11.6-19.3 17.4l-16.7 15c-.2.2-.3.3-.2.6 2.3 10.6 4.5 21.2 6.7 31.8l3.3 15.6c0 .1 0 .3.1.5-.2-.1-.4-.2-.5-.3-13.9-8-27.8-16-41.6-24-.4-.2-.7-.2-1.1 0-13.9 8-27.8 16-41.6 24-.4-.2-.6-.1-.8 0zm13.9-19.2l.6-.3 27.8-16c.3-.2.6-.2.9 0 9.3 5.4 18.5 10.7 27.8 16l.5.3c0-.2 0-.3-.1-.5l-.4-2.1c-2.1-9.8-4.1-19.6-6.2-29.3-.1-.5 0-.7.3-1 8-7.1 15.9-14.3 23.8-21.5l.4-.3c-.4-.1-.7-.2-1-.2l-10.5-1.1-10.5-1.1-10.5-1.1c-.4 0-.6-.2-.8-.6-4.3-9.8-8.7-19.5-13-29.2-.1-.2-.2-.3-.3-.6-.1.3-.2.4-.3.6l-13 29.2c-.1.3-.3.5-.7.5-2.9.3-5.8.6-8.6.9-3.2.3-6.4.7-9.5 1l-9.6 1c-1.6.2-3.1.3-4.8.5l.4.4 23.9 21.5c.3.3.4.5.3.9-2.1 9.9-4.2 19.8-6.3 29.8-.3.8-.4 1.5-.6 2.3z" fill="#EAC500" fill-rule="nonzero"></path></g>
		</symbol>
	
		<symbol id="hot_slots" viewBox="0 0 365.2 325.1">
			<path class="st0" d="M309.9 154.7c7.7 2.8 15 1.4 21.6-4.1 8.6-7.1 14.2-16.5 18.3-26.9.5-1.2.9-2.5 1.3-3.8.1-.3.3-.5 1-1.3.7 2 1.5 3.6 2 5.3 5 17.4 2.3 33.8-7.7 48.9-5.3 7.9-11.2 15.3-16.4 23.2-4.8 7.1-6 14.8-2.1 22.8 3.5 7.2 8.7 8.6 13.8 2.3 5.2-6.5 9.5-13.9 13.4-21.3 2.9-5.5 4.4-11.7 6.8-18.4.9 3.9 1.9 7.1 2.4 10.4 2.8 21.4-.8 42.1-7.8 62.4-7 20.2-17.6 38.2-34.6 51.2-17.4 13.3-36.6 21.9-58.4 19.8-31.2-3.1-58-14.3-73.9-44.5-11.6-22-12-44.5-2.4-67.3 3.8-9 8.7-17.6 13.6-26 7.3-12.4 14.2-24.8 15.8-39.4.6-5.3.4-10.7-.2-15.9-2.7-23.1 3.6-43.9 15.8-63.2.3-.4.7-.8 1.4-1.6-.2 10.3-.9 20-.4 29.7.5 9.4 1.9 18.8 3.6 28.1.9 4.9 3.5 9 8.5 10.9 5.3 1.9 9.4.6 12-4.6 5.3-10.7 4.1-21.5-.7-31.7-4.9-10.5-8.8-21.2-8.4-33.1.6-19.4 7.1-36.2 21.8-49 6.9-6 14.5-11.3 21.7-16.9l1.1 1.1c-1.5 4.2-3.1 8.5-4.5 12.7-4.9 14.9-8.8 30.1-8.6 45.9.1 4.7.8 9.5 1.8 14 .7 3.1 2 6.2 3.7 8.9 3.9 6 8.9 11.1 16.7 10.5 7.2-.6 10.9-6.5 12.7-12.7 3.1-10.4 5-21.1 7.4-31.7.3-1.4.4-2.9.8-5.7 2.1 2.9 3.8 4.8 5.1 7 7.6 12.9 9.6 27.1 8 42-1.8 16.5-6.5 32.2-14.6 46.6-3 5.2-7.3 9.9-11.4 15.4zm6.4 35.2c-4.6-1.4-9.4-1.4-13.7 1-5.2 2.8-10.1 6.4-15 9.8-3 2.1-5.7 4.7-8.8 6.6-1.5.9-4.7 1.4-5.4.5-1.1-1.3-1.2-4-.8-6 .5-2.6 1.9-5 3-7.4 4.1-9.6 8.8-18.9 9.7-29.6.9-10.6-3.9-21.6-11.7-25.2-.2 2.8-.2 5.4-.5 8.1-.8 8.6-1.3 17.6-8.3 23.8-7.9 7.1-16.1 14-21.9 24.7-3.1-14.8-8.3-27.1-19-37.6 2.4 21.2-5.9 38.7-14.6 56-4.9 9.7-7.2 20.1-8 30.9-3.8 54.8 45.3 76.7 76.1 67 24.3-7.6 41.8-23.9 52.9-47.3 2.3-4.9 3.4-10.4 5.1-15.6l-1.4-.6c-2.3 1.7-4.6 3.7-7 5.2-3.6 2.2-7.1 4.8-11 6.2-12.4 4.5-22.2-2.7-21-16.1.7-8.3 2.9-16.8 6-24.5 4.2-10.3 10-19.7 15.3-29.9zM67.5 259.8v63.3h100.1c-4.5-4.4-8.6-9.5-12.4-15.2H82.4v-49.1c5.3-41.1 64.8-96.5 77.5-115.7 5-8.7 5.5-15.6 3.2-21.2v-9.6c-85.1-46.4-117.3 10-117.3 10v24.5H14.9V56.1h17.3v11.3c4.3 2 24.4 16.3 40.3.8 22.9-19.3 61.3-18.6 84.5 0 7.8 7.8 19.6 9 28.5 5.6 2.9-11.3 7.5-22.2 13.6-32.7h-16.6v17.3s-7.6 5-13.5 0c-30-25.6-77.6-25.9-108 0-5.1 4.3-13.5 0-13.5 0V41H0v121h60.7v-34.5c18.1-23.4 53.6-23.4 87.8-5.8 0 5 1.7 4.3 0 11.5s-81 82.4-81 126.6z"></path>
		</symbol>
	
		<symbol id="hot_tables" viewBox="0 0 581.4 331.6">
			<path class="st0" d="M259.2 103.6c10.5 3.9 20.1 7.6 29.8 11.1 2.5.9 4.9 1.7 7.3 2.9 5 2.4 9.5 3.8 13.3-2.2.8-1.3 4.6-1.8 6.5-1.1 6.4 2.3 10.4 10.5 8.7 16.9-1.9 7.5-9.3 13.5-16 12.8-5-.5-5.6-4.6-6.9-8.4-.5-1.6-1.6-3.7-3-4.2-14.8-5.4-29.6-10.7-44.5-15.9-.4-.2-1 0-1.1 0 0 5.8-.2 11.7.2 17.6.1 1.2 2.4 2.9 3.8 3.4 9.7 2.8 16.5 8.4 19.7 18.2 2.3 7 1.5 12.7-4.9 16.8-5.4 3.5-11.6 6.3-17.9 7.5-12.8 2.3-25.5 1.3-36.7-6.9-2-1.5-3.5-3.6-5.4-5.6 3-2 5.2-3.3 7.2-4.9 5.9-5 8.4-11.4 7.7-19.2-.1-1.6 1-4.2 2.3-4.9 8.6-4 8.7-3.9 8.1-14.4-6.6 5.3-12.7 10.3-18.7 15.5-.8.7-.6 2.8-.4 4 1.7 10-7.1 17.8-16.8 15-7.6-2.2-12.4-8.8-12.2-16.5.2-8.1 7.8-14.1 15.7-11.7 3.6 1.1 5.7.3 8.1-2.3 5.6-6.2 11.4-12.2 17.6-18.6-13.3-5.3-27-10.8-40.5-16.2-.7.7-1.1 1.1-1.3 1.5-2.4 3.3-4.7 6.5-9.5 5.7-5-.8-8.2-3.9-10-8.6-3-7.7.6-17.3 7.7-20.8 7.4-3.6 14.6.3 15.1 8.5.2 3.2 1.2 4.4 4.3 5.3 13.7 3.8 27.2 8 41.8 12.3-5.8-5.2-7-10.7-4.5-16.8 2-5 7.3-8 12.6-7.8 6.4.3 9.6 3.5 13.4 14.1 3.3-2.7 6.6-5 9.5-7.9 1-1 1.3-3.3 1-4.7-1.2-8.7 3-15 10.9-16.1 7.7-1.1 15.9 5.6 16.6 13.6 1 10.8-6.9 17.5-17.5 15-1.4-.3-3.6.2-4.6 1.2-5.4 5-10.6 10.6-16.5 16.8zm9.2 26.1c8.1 3 16.2 5.7 24.2 9 1.3.5 2 2.9 2.8 4.4 3.6 7.6 7.8 10.3 16.1 9.3 4-.5 6 1 7.3 4.6 4.3 12.1 1.6 22.6-7.1 31.8-10.7 11.3-24.5 17-39.3 20.2-24.5 5.3-48.5 4-71.9-5.5-5.4-2.3-10.5-5.5-15.4-8.7-1-.7-1.8-3.5-1.3-4.5 9.5-16.8 6.7-27.4-9.8-37.3-.3-.2-.5-.4-1.3-1.2 2.2-2.6 4.3-5.2 6.9-8.4.9 1.6 1.4 2.2 1.6 2.9 2.4 10.3 8.8 16.6 18.7 19.6 1.3.4 2.9 1.2 3.5 2.3 6 11.5 16.4 16.6 28.4 19.1 12.7 2.8 25.2 1.9 37.1-3.5 21.1-9.5 24-33.5 5.9-48.2-2.2-1.7-4.4-3.3-6.7-4.8 0-.5.1-.8.3-1.1zm-88.1 45.1c-.1 8.3-6.4 14.7-14.6 14.6-8-.1-14.7-7-14.4-14.9.2-7.7 6.9-14.2 14.7-14.2s14.4 6.7 14.3 14.5z"></path><path class="st1" d="M525.9 155.4c7.7 2.8 15 1.4 21.6-4.1 8.6-7.1 14.2-16.5 18.3-26.9.5-1.2.9-2.5 1.3-3.8.1-.3.3-.5 1-1.3.7 2 1.5 3.6 2 5.3 5 17.4 2.3 33.8-7.7 48.9-5.3 7.9-11.2 15.3-16.4 23.2-4.8 7.1-6 14.8-2.1 22.8 3.5 7.2 8.7 8.6 13.8 2.3 5.2-6.5 9.5-13.9 13.4-21.3 2.9-5.5 4.4-11.7 6.8-18.4.9 3.9 1.9 7.1 2.4 10.4 2.8 21.4-.8 42.1-7.8 62.4-7 20.2-17.6 38.2-34.6 51.2-17.4 13.3-36.6 21.9-58.4 19.8-31.2-3.1-58-14.3-73.9-44.5-11.6-22-12-44.5-2.4-67.3 3.8-9 8.7-17.6 13.6-26 7.3-12.4 14.2-24.8 15.8-39.4.6-5.3.4-10.7-.2-15.9-2.7-23.1 3.6-43.9 15.8-63.2.3-.4.7-.8 1.4-1.6-.2 10.3-.9 20-.4 29.7.5 9.4 1.9 18.8 3.6 28.1.9 4.9 3.5 9 8.5 10.9 5.3 1.9 9.4.6 12-4.6 5.3-10.7 4.1-21.5-.7-31.7-4.9-10.5-8.8-21.2-8.4-33.1.6-19.4 7.1-36.2 21.8-49 6.9-6 14.5-11.3 21.7-16.9l1.1 1.1c-1.5 4.2-3.1 8.5-4.5 12.7-4.9 14.9-8.8 30.1-8.6 45.9.1 4.7.8 9.5 1.8 14 .7 3.1 2 6.2 3.7 8.9 3.9 6 8.9 11.1 16.7 10.5 7.2-.6 10.9-6.5 12.7-12.7 3.1-10.4 5-21.1 7.4-31.7.3-1.4.4-2.9.8-5.7 2.1 2.9 3.8 4.8 5.1 7 7.6 12.9 9.6 27.1 8 42-1.8 16.5-6.5 32.2-14.6 46.6-3 5.2-7.3 9.9-11.4 15.4zm6.4 35.2c-4.6-1.4-9.4-1.4-13.7 1-5.2 2.8-10.1 6.4-15 9.8-3 2.1-5.7 4.7-8.8 6.6-1.5.9-4.7 1.4-5.4.5-1.1-1.3-1.2-4-.8-6 .5-2.6 1.9-5 3-7.4 4.1-9.6 8.8-18.9 9.7-29.6.9-10.6-3.9-21.6-11.7-25.2-.2 2.8-.2 5.4-.5 8.1-.8 8.6-1.3 17.6-8.3 23.8-7.9 7.1-16.1 14-21.9 24.7-3.1-14.8-8.3-27.1-19-37.6 2.4 21.2-5.9 38.7-14.6 56-4.9 9.7-7.2 20.1-8 30.9-3.8 54.8 45.3 76.7 76.1 67 24.3-7.6 41.8-23.9 52.9-47.3 2.3-4.9 3.4-10.4 5.1-15.6l-1.4-.6c-2.3 1.7-4.6 3.7-7 5.2-3.6 2.2-7.1 4.8-11 6.2-12.4 4.5-22.2-2.7-21-16.1.7-8.3 2.9-16.8 6-24.5 4.2-10.3 10-19.7 15.3-29.9z"></path><path class="st0" d="M265 293.1c10.2-1.2 20.3-1.9 30.4-3 22.9-2.4 45.2-7 66.8-14-5.4-13.1-7.8-26.2-7.1-39.6l-.4.2c-23.2 8.1-47 13.1-71.5 15.1-11.7 1-23.6 1.7-29.7 2.1-49.7-.5-92.6-7.2-133.2-25-25-10.9-47.8-25-64.8-46.9-24.9-32.2-23.1-69.8 4.5-99.9 19.6-21.3 44.2-34.8 71-44.7 24.9-9.2 50.6-14.5 77-17 51.2-4.8 101.2.1 149.6 17.9 15.8 5.8 30.8 12.9 44.6 22.1 1.4-5.6 3.3-11.1 5.5-16.4-46.6-25-97.2-35.6-150-37.5-21.6-.8-43.4.9-64.9 2.8-29.7 2.6-58.5 9.9-86.2 20.9C75.9 42.4 47.8 58.6 26 84.1 6.2 107.2-3.3 133.4 2 164.2c7.8 46.5 28.4 85.4 67 113.5 58.1 42.5 124.2 56.7 194.9 53.5 3-.1 6-.7 9.7-1.2-2.3-3.1-5.1-5.3-5.9-8.2-2.6-8.4-4.3-17.1-6.1-25.6-.3-.8 2-2.9 3.4-3.1zm98.4-91.7c2.8-6.7 6.2-13.3 9.7-19.7-.9.6-2.3.9-3.3.9-6.9 0-13.8-.4-20.7-.5-8.1-.2-9.7 1.2-11.8 10.1 9.3.9 18.4 1.9 28.7 3-2.4 2.7-4.1 4.5-5.6 6.5-3.4 4.5-7.2 6-12.7 3.6-3.8-1.6-8.2-2.3-12.3-3.4-7.4-1.9-12.4.2-17 7.2 6.5 2.9 13 5.7 19.8 8.7-11.9 8.9-14.4 9-26 1.8l-1.3-.8c-6.3-3.9-15.2-2.9-21.4 2.9 3.9 3.6 7.9 7.2 12.4 11.4-6.6 1.5-12.3 2.9-18.1 3.8-1 .2-3.1-1-3.4-2-3.4-10.2-10.5-12.1-19.8-9.6-.3.1-.7.1-1 .1-3.9 0-5.9 1.3-4.1 5.7 1 2.7 1.4 5.5 2.2 8.7h-21.6c.3-2.8.6-5.2 1-7.6 1.1-5.7.8-6.2-4.9-6.7-1.2-.1-2.5.2-3.5-.2-8.2-3-12 1.3-14.6 8.3-.5 1.5-2.8 3.6-3.9 3.4-6.1-.7-12.1-2.1-18.9-3.5 4.3-4.5 7.8-8.3 11.4-12.1-9.6-5-18.3-8.7-27-.1-1.4 1.3-3.3 2.3-5 3.1-1.1.5-2.7 1-3.6.6-4.5-2-9-4.2-14.6-6.9 8.1-3.1 14.9-5.6 22.7-8.5-3.4-2.4-5.9-3.8-8-5.8-3.2-3-6.3-3.4-10.4-2.1-5.6 1.8-11.4 3-17.2 4.3-1.2.3-3 .6-3.6 0-3.6-3.2-7-6.5-11.4-10.9 9.6-.7 17.4-1.3 25.8-1.9-2-3-3.7-5.1-4.8-7.6-1.3-3.1-3.4-3.9-6.5-3.7-5.9.4-11.8.7-17.8.7-1.7 0-4.1-1-4.7-2.2-1.5-3.1-2.2-6.6-3.3-10.3 8.1.6 15.4.4 22.4 1.9 6 1.3 7.8-1 9.1-6 .7-3.1.7-4.5-3-5-8.1-1.1-16.2-2.8-24.3-3.7-3.5-.4-4.2-1.7-3.3-4.7.5-1.4.9-2.8 1.2-4.2.8-3.6 2.6-4.4 6-3.2 7.4 2.7 14.9 5 22.4 7.3 1.4.5 3.8.2 4.6-.8 2-2.4 3.1-5.3 4.8-8.5-9.3-4-18.1-8-27.9-12.2 2.5-2.7 4.4-4.6 6.1-6.7 2.4-3 4.7-3.3 8-1.1 5.7 3.7 11.7 7.2 17.8 10.6 1.3.7 3.5 1.2 4.4.6 3.2-2 5.9-4.4 9.4-7-7.1-5.9-13.6-11.2-20.7-17.2 4.6-2.5 8.4-4.6 12.8-6.3 1-.4 3.1.5 4 1.4 4.3 4.2 8.4 8.8 12.7 13.1 1.1 1.1 3 2.6 3.9 2.3 4.4-1.3 8.7-3.2 13.7-5-2.4-3.4-3.9-6-6-8.3-.7-.8-2.8-1.2-3.7-.8-9.7 3.6-17.1.4-23.1-7.1-1.9-2.4-3.5-3-6.1-1.7-15.7 7.3-30 16.5-41 30-18.1 22.2-18.2 48.9-.5 71.4 9.5 11.9 21.6 20.6 34.9 27.6 24.5 12.9 50.9 19.1 78.3 20.8 33.4 2.2 66.2-1.6 97.5-14.6 11.1-4.6 21.5-10.1 30.7-17.2 1.4-4.8 3-9.6 5-14.4zM302.6 99.2c.8-1.2 3-2.3 4.1-2 5 1.4 9.9 3.3 14 4.7.3 2.4-.1 4.3.7 5.1 3.4 3.3 7.1 6.2 10.8 9.5 3.6-.2 5.4-6.8 10.5-3.4 3.3 2.3 6.5 4.5 10.5 7.3-5.3 2.9-9.5 5.2-13.7 7.3-3.5 1.7-5.7 3.9-6.5 7.9-.6 2.7-1.2 5.1 1.5 6.4 1.6.8 4 .9 5.7.3 7.3-2.8 14.3-5.9 21.5-8.7 1.3-.5 3.6-.6 4.2.2 2.3 2.8 4 6 6.4 9.6-9.7 2.9-18.2 5.3-26.8 8.1-1.4.4-3.5 2.2-3.4 3.1.9 6 2.3 12 3.6 18.6 8.2-.7 16.7-1.4 25.2-2 1.7-.1 3.4.5 5 .8-.5 2.5-.9 5.2-1.7 7.7 2-3.6 4-7.1 6.1-10.6 2.2-3.7 4.3-7.4 6.4-11.2-2.4-16.3-11.4-29.2-24-40-16.3-14-35.3-22.5-55.6-28.6-3.6-1.1-6.4-.8-9.6 1.5-2.8 2.1-6.4 3.4-9.9 3.9-4.5.7-6.5 3-6.8 7.7l3.7 1.8c11.2 4.5 11.1 4.4 18.1-5z"></path>
		</symbol>
	
		<symbol id="info" viewBox="0 0 80.8 80.9">
			<path d="M40.5 6.3c18.9 0 34.2 15.4 34.2 34.3S59.4 74.8 40.5 74.8 6.2 59.4 6.2 40.5 21.6 6.3 40.5 6.3m0-6C18.3.3.2 18.3.2 40.6c0 22.2 18 40.3 40.3 40.3 22.2 0 40.2-18 40.2-40.3C80.7 18.3 62.7.3 40.5.3z"></path><path d="M45.2 17.1c3.1 0 4.7 2.1 4.7 4.6 0 3.1-2.7 5.9-6.3 5.9-3 0-4.7-1.8-4.6-4.7 0-2.4 2.1-5.8 6.2-5.8zm-9.7 46.8c-2.5 0-4.3-1.5-2.6-8.2l2.8-11.9c.5-1.9.6-2.7 0-2.7-.7 0-4 1.3-5.9 2.6l-1.2-2.1c6-5.1 13-8.1 15.9-8.1 2.5 0 2.9 3 1.7 7.6L43 53.6c-.6 2.2-.3 3 .2 3 .7 0 3.2-.9 5.6-2.8l1.4 1.9c-5.8 6-12.2 8.2-14.7 8.2z"></path>
		</symbol>
	
		<symbol id="new" viewBox="0 0 520 520">
			<path class="st0" d="M265.2 250.2c-1.2-4.4-3-7.6-5.5-9.5s-5.7-2.3-9.6-1.3c-4 1.1-6.5 3.2-7.8 6.6-1.2 3.3-1.4 7.4-.6 12.3l.4.3 23.6-6.3-.5-2.1zm204.6 21.1l50.2-48.4-61.6-32.3 27.5-63.9-69.3-6.6 1.2-69.9-66.9 20.3L325.1 6l-53.8 44.2L222.9 0 190 62.2l-63.9-28.1-6.6 69.9-69.3-1.2 20.3 66.3-65.1 25.7 44.8 53.8-50.2 49 61.6 32.3-27.5 63.9 69.3 6.6-1.2 69.9 66.9-20.9 25.7 65.1 53.8-44.8L297 520l32.9-61.6 64 27.5 6.6-69.3 69.3 1.2-20.3-66.9 65.1-25.7-44.8-53.9zm-282 57.9l-14.5-54.6c-1.3-5-3.3-8.3-6-9.9-2.6-1.5-6-1.8-10.1-.7-2.5.7-4.7 1.7-6.4 3.2-1.7 1.4-3.1 3.2-4.1 5.2l16.8 63.2-27.4 7.3-23.3-87.9 25.8-6.8 4.3 12.1c1.7-5.1 4.3-9.5 7.9-13.1 3.6-3.6 8-6.1 13.2-7.5 8.6-2.3 16.1-1.3 22.4 3 6.3 4.3 11.1 12.5 14.4 24.7l14.5 54.5-27.5 7.3zM289.6 301c-5.6 3.5-11.9 6.2-18.9 8-12.9 3.4-24.4 2.1-34.2-3.9-9.9-6.1-16.4-15.2-19.7-27.5l-.8-3.1c-3.6-13.4-3-25.2 1.8-35.6 4.8-10.3 13.7-17.2 26.7-20.6 11.9-3.2 22.2-2.1 30.9 3.3s14.6 14.1 17.9 26.4l3.8 14.4-50.2 13.3v.5c1.8 4.3 4.6 7.5 8.5 9.6 3.9 2.1 8.4 2.4 13.5 1.1 5.2-1.4 9.2-2.9 12.1-4.5s6.5-4.1 10.7-7.4l10.9 15c-3 3.8-7.4 7.5-13 11zm95.5-24.2L358.4 234l-.5.1-2 50.5-23.2 6.2-44.1-82.4 25.3-6.7 23.3 48.8.5-.1.7-55.1 17.3-4.6 28 47.1.5-.1-4-53.5 25.3-6.7 2.7 93.4-23.1 5.9z"></path>
		</symbol>
	
		<symbol id="other_games" viewBox="0 0 241.9 187.9">
			<path class="st0" d="M153.4 1.1c3.5-.4 7 1.1 10.6 2.1 5.8 1.7 11.6 3.5 17.4 5.3l16.7 5.1c3.8 1.2 7.8 2.1 11.5 3.5 7.3 2.8 11.4 9.6 8.4 17.6-1.4 3.8-3.2 7.4-4.9 11-3.3 6.8-6.7 13.6-10.1 20.4l-9.1 17.8c-1.1 2.1-2.2 4.3-3.5 6.2-2.5 3.6-5.8 6.3-9.8 8-4 1.6-8.2 1.9-12.3.6-5.1-1.6-10.2-3.4-15.3-5.1-6.9-2.3-13.8-4.6-20.7-7-5.4-1.8-10.7-3.7-16-5.5-3.2-1-6.1-2.4-8.2-5-3.2-3.8-4.1-8.1-2.2-12.6 1.6-3.8 3.5-7.5 5.5-11.2 3-5.7 6.1-11.4 9.2-17.1 1.7-3.2 3.5-6.4 5.3-9.6 2.4-4.4 4.8-8.8 7.3-13.1 1.9-3.5 4.7-6.2 8.2-8.2 3.3-2.2 7.4-3.4 12-3.2zm16.5 80.5c2.9-.1 5.4-.9 7.7-2.6 2-1.5 3.5-3.5 4-6.1.8-4.3-2.7-8-7.5-8.2-4.4-.1-8 1.6-10.6 5-2.1 2.8-2.6 5.9-.3 8.8 1.6 2.4 4.1 3 6.7 3.1zm11.2-43.8c.2.6.3 1.6.8 2.5 1.4 2.8 3.9 3.8 6.9 4 4.7.4 10-2.7 11.8-7.1 1.5-3.7-.3-7.7-4.2-8.9-4.9-1.6-9-.2-12.6 3.2-1.6 1.5-2.5 3.5-2.7 6.3zm-48.9 30.4c2.9 0 6.1-1.6 8.4-4.6 1.2-1.6 2-3.4 1.6-5.5-.6-3.1-2.9-5.1-6.1-5.5-4.3-.5-8 .9-10.7 4.3-1.6 2-2.5 4.3-1.5 6.9 1 2.7 3.7 4.3 8.3 4.4zm18.2-36.4c4.4-.4 8.2-2.2 10.2-6.8 1.3-2.9 0-6.6-2.7-7.9-5.3-2.6-12.4-.2-14.8 5.2-1 2.3-1 4.7.7 6.8 1.6 2 3.9 2.5 6.6 2.7zM7.1 94.5c-.1-4.2 2-7.6 5.6-10 3-1.9 6.2-3.6 9.3-5.2 3.9-2 7.9-4 11.9-5.8 7.2-3.3 14.5-6.7 21.8-9.8 4.5-1.9 9.4-2.6 14.3-2 4.4.5 7.6 3 10.2 6.5 2.2 3 4.5 5.9 6.8 8.8 3 3.9 6 7.8 8.9 11.7 2.9 3.9 6 7.7 8.8 11.6 4.1 5.6 3.3 12.4-2.1 16.6-1.9 1.5-4.1 2.6-6.2 3.8-2.6 1.5-5.3 2.9-8 4.3-5.4 2.8-10.9 5.6-16.3 8.3-3.7 1.9-7.3 3.9-11 5.7-3.2 1.6-6.3 3.4-9.6 4.6-4.5 1.6-9.1 1.5-13.2-1.4-1.6-1.1-3-2.7-4.2-4.4-3.8-5.3-7.5-10.7-11.1-16.1-4.5-6.6-8.9-13.2-13.5-19.7-1.4-2.1-2.2-4.5-2.4-7.5zm50.6 27.8c0-2.1-1.6-4.6-3.2-5.2-2.7-1-5.4-1.3-8.2 0-3.4 1.6-5.6 5.9-1.6 9.2 2.9 2.4 8 2.3 10.9-.2 1.3-1.1 2-2.4 2.1-3.8zm25.7-10.8c.6-.1 1.8-.3 2.9-.6 2.2-.7 4.2-3 4.3-5.1.1-2.4-1.2-4.1-3.3-5.1-3.4-1.7-6.7-1.4-9.7.9-2.8 2.2-2.9 5.4-.5 7.8 1.6 1.5 3.6 2 6.3 2.1zm-52.6-10.4l.1.3c1.6-.6 3.2-.9 4.6-1.7 3.8-2.1 3.9-6.7.3-9.1-3.4-2.2-7.9-1.8-10.7.8-2.5 2.2-2.4 5.8.2 7.8 1.6 1.3 3.4 2 5.5 1.9zm16.1-7.7c2.1 0 3.9-.6 5.5-1.8 2.9-2.2 3-6.1.2-8.3-2.7-2.1-7.2-2.3-10.1-.5-2.8 1.8-3.7 4.6-2.2 7.2 1.4 2.4 3.8 3.3 6.6 3.4zM66.5 108l-.1-.3c-1.6.5-3.2.9-4.6 1.7-1.8 1-2.9 2.7-2.8 4.8 0 2.2 1.3 3.7 3.1 4.6 2.7 1.5 5.6 1.4 8.4.1 4-1.8 4.8-6.6 1.4-9.2-1.5-1.3-3.4-1.8-5.4-1.7zM63 73.1c-1 .3-2.5.6-3.8 1.2-3.9 1.8-4.4 6.9-1 9.3 2.9 2 7.2 2.1 10.2-.1s3.5-5.5 1-8.1c-1.7-1.6-3.7-2.1-6.4-2.3zm-18.7 95.1c-.1-3.8-.1-6.8 1-9.6 1.1-3.1 3.1-5.5 5.6-7.6 5.1-4.3 11-7.3 16.8-10.5 4.9-2.7 9.7-5.3 14.6-7.9 6.3-3.4 12.6-6.8 19-10 2.4-1.2 5.1-2 8-2 3.8 0 6 2.1 6.1 5.9.1 5.7-.4 11.4-1.4 17.1-.7 4.3-1.8 8.5-4 12.3-1.8 3.1-4.5 5.3-7.2 7.4-5.2 4-11.1 7-17 9.8l-11.3 5.5c-6 2.9-12 5.8-18 8.6-1.5.7-3 1.3-4.6 1.7-2.1.5-3.6-.5-4.7-2.4-1.4-2.4-1.8-5.1-2.1-7.8-.5-3.7-.6-7.5-.8-10.5zm49.5-7.7c.1 0 .3 0 .5-.1 3.7-.6 6.5-2.5 8.9-5.3.4-.5.8-1.2 1-1.9.4-1.2 0-1.8-1.3-1.7-1 0-2 .2-2.9.6-3.3 1.2-6 3.1-7.7 6.2-.7 1.5-.1 2.3 1.5 2.2zm-27.1-11.3c-3.5.7-6.9 2.7-9.2 6.3-.4.6-.7 1.6-.4 2.1.3.4 1.3.7 2 .6 4.2-.7 7.5-2.9 9.8-6.6.9-1.6.3-2.4-2.2-2.4zm44.2-64.9c1.9.5 4.7 1.1 7.4 2 5.6 1.8 11.1 3.6 16.6 5.5 4 1.4 7.9 2.9 11.8 4.3l17.4 6.2c7.6 2.8 14.5 6.8 20.5 12.3 4.2 3.9 6.9 8.7 8.9 14 1.2 3.2 2.7 6.4 4.1 9.6.6 1.5 1.2 3 1.5 4.5.4 1.7-.4 2.7-2.1 2.7-1.8-.1-3.7-.3-5.4-.8-4.4-1.3-8.7-2.8-13.1-4.3-5.8-2-11.5-4.1-17.2-6.2-6.4-2.3-12.8-4.8-19.3-7.1-5.9-2.1-10.9-5.7-15.8-9.5-5.1-4.1-8.8-9.3-12.4-14.8-2.4-3.7-4.8-7.5-7.1-11.2-.4-.7-.7-1.6-.9-2.4-.5-3.3.8-4.8 5.1-4.8zm47.7 23.3c1.9 3.8 12 9.1 15.5 8.2-.7-3.3-12.4-9.5-15.5-8.2zm-26.7 6.5c1.4 3.5 12.5 9.4 15.5 8.1-.6-3.1-12.4-9.4-15.5-8.1zm12.9-3.6c.7 3.4 12.8 9.7 15.4 8.2-.6-2.9-11.6-9.1-15.4-8.2zm53.5-25.6c0-.3 0-.7.1-1 3.5-6.8 7.1-13.5 10.6-20.4 3.2-6.3 6.2-12.6 9.3-18.9 1.2-2.4 2.3-4.8 3.7-7.1.7-1.2 1.8-2.3 3-3.2 2.3-1.7 4.6-1.3 6.6.7 2.2 2.2 3.5 4.9 4.7 7.6 1.6 3.7 3.2 7.5 4.3 11.4 2 6.9 2.9 13.9.9 20.9-1.3 4.6-2.9 9.1-4.8 13.5-1.9 4.5-4.2 8.8-6.3 13.2l-4.7 9.7c-.1.2-.4.4-.5.5l-2.7-2.7c-2.2-2.2-4.4-4.4-6.7-6.6l-6.1-6.1-11.4-11.5zm15.8 7.5c.1.9.2 1.4.3 2l.1.6c.3 1.1.9 1.4 1.7.5 1.2-1.5 2.4-3.1 3.2-4.8 1.6-3.3 2.4-6.7 2-10.4-.1-.5-.5-1-.7-1.6-.5.3-1.1.6-1.6.8l-.2.3c-1.9 2.2-3 4.9-3.7 7.7-.6 1.8-.9 3.5-1.1 4.9zM34.8 182.6c-.6-.7-1.2-1.3-1.7-2.1-4.5-6.9-8.9-13.9-13.3-20.8-2.9-4.5-5.8-9.1-8.5-13.7-2.1-3.7-4-7.5-5.6-11.5-1-2.4-1.4-5.1-1.9-7.8-1.6-7.9-2.6-15.8-2.8-23.9 0-.9.1-1.8.4-2.7.4-1.4 1.5-1.9 2.6-.9 1.1.9 2.1 2 2.9 3.1l11 16.6c4.2 6.4 8.5 12.8 12.6 19.2 4 6.2 7.2 12.9 8.5 20.2 1 5.6 1.4 11.3 2.1 17l-.1 1c-2.1 2.2-4.1 4.3-6.2 6.3zm-24-47.4c.6 3 4.2 9.5 5.7 10.4-.6-2.5-4-8.9-5.7-10.4zm17.5 26c1.2 3.8 2.9 7.4 5.6 10.4-1.3-3.9-3.1-7.4-5.6-10.4zM8.8 115.1c1.2 3.8 3 7.2 5.5 10.3-1.2-3.8-2.9-7.3-5.5-10.3zm18 26.3c1.2 3.8 3 7.3 5.6 10.4-1.3-3.8-3-7.3-5.6-10.4zm183-44.9l6.1 6.1 6.7 6.6 2.7 2.7c-.1.4 0 .8-.2 1.1-3 6.3-6.1 12.6-9.2 18.8-.9 1.7-1.9 3.5-3.1 4.9-3 3.4-7.1 3-9.5-.8-2.8-4.3-4.9-9-6.7-13.8-1-2.6-1.7-5.3-2.6-8l-.2-1.5 4.4-4.4 6.7-6.7c1.6-1.6 3.2-3.3 4.9-5zm0 0l-5 5.1-6.7 6.7-4.4 4.4c-1.1-3.3-1.3-6.7-1.4-10.1 0-4.9 1.4-9.3 3.6-13.6l1.5-3c.2-.4.5-.7.8-1 3.9 3.8 7.8 7.6 11.6 11.5zm-175 86.1l6.1-6.2c.1 1.3.4 2.7.3 4-.1 1.3-.5 2.5-.9 3.8-.3.8-1.1 1.2-1.9 1-1.5-.3-2.8-1-3.6-2.6z"></path>
		</symbol>
	
		<symbol id="play" viewBox="0 0 80.8 80.9">
			<path d="M40.4.2C18.2.2.1 18.2.1 40.5c0 22.2 18 40.3 40.3 40.3 22.2 0 40.3-18 40.3-40.3C80.7 18.2 62.7.2 40.4.2zm-7.8 57.3V23.6l22.3 16.9-22.3 17z"></path>
		</symbol>
	
		<symbol id="play2" viewBox="0 0 132 132">
			<g fill="none" fill-rule="evenodd"><path d="M0 66C0 29.55 29.541 0 66 0c36.45 0 66 29.541 66 66 0 36.45-29.541 66-66 66-36.45 0-66-29.541-66-66z" fill="#EAC500" fill-rule="nonzero"></path><path d="M92.022 68.635l-34.086 22.33C55.21 92.751 53 91.575 53 88.36V42.443c0-3.225 2.21-4.392 4.936-2.606l34.086 22.33c2.726 1.786 2.726 4.682 0 6.468z" fill="#000"></path></g>
		</symbol>
	
		<symbol id="play_for_fun" viewBox="0 0 80.8 80.9">
			<path d="M40.4 6.2c18.9 0 34.2 15.4 34.2 34.3S59.2 74.7 40.4 74.7 6.2 59.4 6.2 40.5c0-18.9 15.4-34.3 34.2-34.3m0-6C18.2.2.1 18.2.1 40.5c0 22.2 18 40.2 40.3 40.2 22.2 0 40.2-18 40.2-40.2C80.7 18.2 62.7.2 40.4.2z"></path><path d="M65.7 40.1c-.1 12.7-9.5 23.4-22 25.1-13.4 1.8-25.8-7.1-28.3-20.4-.2-1.1-.2-2.2-.2-3.3.1-1.5 1.2-2.4 2.7-2.5 1.9-.2 3.8.3 5.7.7 2.8.6 5.5 1.2 8.4 1.3 7.2.2 13.6-2 19.2-6.6 1.7-1.4 3.2-2.9 4.8-4.3.7-.6 1.5-1.3 2.3-1.8 2-1.3 3.8-.9 5 1.2 1.1 1.9 1.6 3.9 2 6 .2 1.6.3 3.1.4 4.6zm-2.7 0c-.3-1.8-.5-3.7-.9-5.5-.3-1.3-.9-2.5-1.3-3.8-.2-.4-.5-.6-.9-.3s-.8.5-1.2.9C57 33 55.4 34.5 53.6 36c-7.8 6.6-16.7 9-26.8 7.3-2.3-.4-4.6-1-6.9-1.4-2.1-.4-2.3-.4-1.9 1.8 2.1 12.5 13.6 20.7 26.1 18.6C54.8 60.5 62.8 51 63 40.1zm-37.6-16c2.4 0 5.1 2 6 4.9.3 1 0 1.8-.8 2-.8.3-1.5-.2-1.8-1.1-.7-2.2-2.9-3.4-5.1-2.8-2.1.5-3.5 2.6-3.1 4.9 0 .2.1.5.1.7 0 .7-.5 1.3-1.2 1.4-.7.1-1.3-.3-1.5-1-.9-2.8.4-6.2 3.1-7.8 1.1-.9 2.3-1.2 4.3-1.2zm16.8.5c0-3.4 2.5-6.4 5.8-7 3.5-.6 6.8 1.4 7.9 4.7.3 1 0 1.8-.8 2.1-.8.3-1.5-.1-1.9-1.1-.7-1.9-2.4-3.1-4.2-2.9-2 .1-3.5 1.5-3.9 3.4-.1.6-.1 1.2 0 1.8.1 1-.2 1.7-1.1 1.9-.8.2-1.5-.3-1.7-1.3 0-.6-.1-1.1-.1-1.6z"></path>
		</symbol>
	
		<symbol id="play_fun" viewBox="0 0 132 132">
			<g fill="none"><circle fill="#EAC500" cx="66" cy="66" r="66"></circle><path d="M61.631 0h8.506c.387.077.748.155 1.134.206 2.707.387 5.465.619 8.145 1.16 26.24 5.311 46.99 26.709 51.552 53.135.412 2.449.696 4.898 1.031 7.373v7.992c-.077.284-.18.567-.206.877-.773 10.957-4.073 21.115-9.975 30.345-10.439 16.32-25.286 26.271-44.309 29.88-2.346.438-4.743.696-7.114 1.031h-8.506c-2.5-.335-5.026-.593-7.501-1.031C27.4 126.276 5.774 104.62 1.057 77.627.619 75.152.361 72.625 0 70.125v-7.992c.077-.361.18-.748.206-1.109.722-9.745 3.428-18.898 8.326-27.328C18.868 15.804 34.231 4.924 54.517 1.031 56.863.593 59.26.335 61.631 0zm4.33 5.466C32.194 5.698 5.696 32.691 5.542 65.794c-.129 33.567 26.833 60.663 60.368 60.689 33.87.026 60.548-27.225 60.548-60.534 0-33.567-27.091-60.354-60.497-60.483zm49.307 60.71c-.232 24.556-18.573 45.446-42.909 48.65-26.137 3.46-50.266-13.765-55.231-39.525a23.937 23.937 0 0 1-.309-6.357c.232-2.845 2.341-4.665 5.222-4.921 3.782-.359 7.409.59 11.036 1.41 5.402 1.23 10.804 2.256 16.361 2.435 14.097.487 26.522-3.973 37.404-12.816 3.241-2.64 6.277-5.562 9.415-8.331 1.415-1.23 2.855-2.486 4.425-3.486 3.859-2.486 7.357-1.64 9.698 2.307 2.135 3.614 3.138 7.664 3.859 11.74.489 2.948.695 5.947 1.029 8.894zm-5.377.051c-.54-3.537-.875-7.1-1.672-10.586-.566-2.512-1.672-4.896-2.598-7.331-.309-.846-.952-1.205-1.826-.59-.772.564-1.569 1.077-2.264 1.692-3.293 2.922-6.508 5.947-9.878 8.792C76.475 70.995 59.06 75.762 39.457 72.302c-4.502-.795-8.952-1.974-13.454-2.743-4.09-.692-4.425-.795-3.704 3.486 4.065 24.248 26.497 40.14 50.832 36.167 20.76-3.409 36.504-21.941 36.761-42.986zM37.302 35.325c4.67 0 9.956 3.908 11.727 9.588.616 1.98.026 3.491-1.617 4.039-1.591.521-2.9-.287-3.541-2.241-1.437-4.299-5.568-6.644-9.828-5.628-4.183 1.016-6.774 5.159-6.056 9.64.077.469.205.938.205 1.407-.026 1.355-1.052 2.475-2.361 2.684-1.334.208-2.566-.651-3.002-2.058-1.694-5.524.872-12.142 5.953-15.347 2.232-1.407 4.67-2.11 8.519-2.084zm32.416.879c.051-6.705 4.868-12.604 11.272-13.695 6.84-1.143 13.245 2.729 15.422 9.303.64 1.975.102 3.482-1.511 4.08-1.588.572-2.946-.26-3.638-2.235-1.307-3.69-4.611-6.055-8.198-5.795-3.817.26-6.891 2.885-7.609 6.705-.205 1.117-.102 2.313.051 3.456.282 1.923-.461 3.404-2.049 3.742-1.614.338-2.921-.65-3.33-2.573-.205-1.014-.282-2.001-.41-2.989z" fill="#000"></path></g>
		</symbol>
	
		<symbol id="slots" viewBox="0 0 499.8 439.7">
			<path class="st0" d="M328.2 113c15.1 0 30.1.6 45-.2 15.5-.8 23.6 9.5 23.4 23-.6 35.1-.2 70.3-.2 105.5v5.9c4 0 7.8-.1 11.5 0 5.4.1 7.6 2.2 7.6 7.6v100c0 5.1-1.9 6.9-6.9 7.1h-1c-11.2.2-11.2.2-11.2 11.3v45.5c0 12.1-8 20.1-20 20.1H20C7.6 438.8.2 430.9.2 417.6v-102C.2 256.8.5 198 0 139.1c-.2-18.1 6.7-27.4 26.6-26.3 12.1.7 24.3.2 36.5 0 1.7 0 4.5-1 4.7-1.9.4-2 .1-4.8-1.2-6.3-5.1-6.1-10.7-11.9-16-17.8-7.4-8.2-5-15.8 5.7-18 7.5-1.6 15-3 22.4-4.9 2.2-.6 4.7-2.4 5.9-4.3 4.3-6.7 8-13.9 12-20.7 4.8-8.1 12.8-8.1 17.7 0 2.1 3.6 4.3 7.1 6.1 10.9 1.5 3 3.2 4 6.6 3.2 12.7-2.8 25.4-5.2 38.1-8.1 1.9-.4 4-2.3 5-4.1 6.3-10.6 12.3-21.3 18.4-32.1 2.3-4 4.6-7.8 10-7.7s7.7 3.9 9.9 7.9c6 10.6 11.9 21.2 18.2 31.6 1.3 2.1 4 3.9 6.4 4.5 11.8 2.8 23.7 5.1 35.6 7.7 3.1.7 4.9.1 6.4-2.9 1.7-3.6 3.9-7 5.9-10.4 5.1-8.9 13.3-8.8 18.5.2 3.9 6.8 7.6 13.7 11.7 20.3 1.2 1.8 3.5 3.5 5.6 4 7.9 2 15.9 3.4 23.9 5.1 8.8 1.9 11.5 9.7 5.5 16.5-5.2 5.9-10.4 11.7-15.8 17.4-2.8 2.8-4 5.7-2.1 10.1zm-130 192h151c7.1 0 9.5-2.2 9.5-9.1V159.4c0-6.3-2.4-8.6-8.9-8.6H48.4c-8.6 0-10.1 1.5-10.1 10.3v133.5c0 8.8 1.6 10.4 10.5 10.4h149.4zm33.5-173.3c-1.2-11.1-2.1-21-3.2-30.9-.4-3.9.8-7.1 3.5-9.9 5.8-6.2 11.5-12.5 17.1-18.8.9-1 1.6-2.2 2.7-3.7-9.1-1.9-17.3-4.1-25.7-5.3-7-1-11.4-4.3-14.5-10.5-3.8-7.7-8.4-14.9-13.2-23.2-5 8.8-9.8 16.5-13.9 24.6-2.8 5.4-6.9 8-12.8 9-8.8 1.5-17.4 3.5-27.1 5.6 6.1 6.8 11.1 13.2 17.1 18.7 6.3 5.8 7.6 12.2 6.2 20.2-1.3 7.7-1.8 15.6-2.7 24.4 9.7-4.3 18.4-8 26.9-12.1 4.4-2.1 8.4-2.1 12.8.1 8.6 3.8 17.3 7.5 26.8 11.8zm53.1 230.2H125.5c-14.1 0-13.9 0-14.1 14.1-.1 4.6 1.2 5.9 5.9 5.9 34.6-.2 69.3-.1 103.9-.1h59c2 0 4.6.7 4.6-2.8v-17.1zm-159-240.6c-4.7-14.1-3.1-26.2 9.5-34.1-2.5-5.4-7.1-4.8-10.7-5.4-5.9-.9-10.1-3.5-12.6-9.1-1.7-3.7-4-7.1-6.5-11.4-2.9 5-5.4 9-7.6 13.2-1.9 3.6-4.6 5.8-8.8 6.5-4.8.8-9.6 2-15.3 3.3 2.9 3.2 5 6.1 7.6 8.3 6 5 7 11.2 5.7 18.4-.6 3.1-.7 6.4-1 9.9 7-2.6 13.1-6.6 19.3-6.6 6.2.1 12.4 4.1 20.4 7zm144.8-.3c6.7-2.5 13-6.6 19.4-6.6 6.3 0 12.7 4.1 19.5 6.6-.4-4-.3-7.9-1.2-11.5-1.7-6.9.6-11.9 5.5-16.5 2.7-2.5 4.9-5.4 7.9-8.7-5.6-1.2-9.9-2.3-14.3-3-4.9-.8-8.1-3.3-10.3-7.7-2-4-4.5-7.8-7.1-12.4-2 3.5-3.7 5.9-4.9 8.7-3.2 7.4-8.2 11.6-16.5 12.3-2.7.2-5.2 2.5-7.6 3.7 4.2 6 9.4 10.6 10.8 16.1 1.5 5.8-.6 12.5-1.2 19zm171.1 204.6V95.1c0-3.3-.7-5.4-3.6-7.4-14.1-10.3-19.3-28-13.2-44 6-16 21.4-25.7 38.9-24.6 16.1 1 30.6 13.3 34 29.8 3.2 15.5-1.5 28.7-14.2 38.5-3.2 2.4-4.2 4.9-4.2 8.7.1 63.5.1 126.9 0 190.4 0 20.7-13.2 35.9-33.4 39l-4.3.1zM58 170.8h80v114H58v-114zm10.1 54.4c9.8 8.4 19.3 16.6 29 25 6.7-5.8 13.2-11.3 19.6-16.8 9.8-8.5 9.9-8.5 2.6-19.3-.9-1.4-3.1-2.7-4.7-2.7-11.8-.2-23.6-.2-35.5 0-1.3 0-3 .8-3.7 1.8-2.5 3.7-4.7 7.7-7.3 12zm170 60h-24.8c-16.7 0-33.3-.1-50 0-3.9 0-5.6-.8-5.6-5.2.2-34.8.1-69.6.1-104.4 0-2.9-.1-5.2 4-5.1 24.5.1 49 .1 73.5.1.8 0 1.6.2 2.8.4v114.2zm-39.8-35c6.8-5.8 13.3-11.5 19.9-17.1 9.3-8 9.4-8.1 2.6-18.5-1.1-1.6-3.5-3.2-5.3-3.3-11.5-.3-23-.2-34.4 0-1.6 0-3.7.9-4.5 2.1-2.6 3.6-4.7 7.6-7.3 11.7 9.7 8.4 19.2 16.6 29 25.1zm60.1-22.3c0-17.5.1-35-.1-52.5 0-3.6 1-5 4.8-4.9 23.7.1 47.3.1 71 0 3.7 0 4.9 1.2 4.9 4.9-.1 35-.1 70 0 105 0 4.2-1.8 4.9-5.4 4.9-23.5-.1-47-.1-70.5 0-3.8 0-4.8-1.2-4.8-4.9.1-17.5.1-35 .1-52.5zm40.6 21.9c.8-.3 1.1-.3 1.4-.5 6.5-5.5 12.9-11 19.3-16.5 8.9-7.6 9-7.7 2.5-17.7-1.1-1.8-3.6-3.7-5.6-3.7-11.6-.3-23.3-.2-34.9-.1-1.4 0-3.3.9-4.1 2-2.2 3.1-4.2 6.4-5.9 9.8-.5.9 0 3 .7 3.7 8.9 7.8 17.9 15.4 26.6 23z"></path>
		</symbol>
	
		<symbol id="star" viewBox="0 0 80.8 80.9">
			<path d="M40.4 6.2c18.9 0 34.2 15.4 34.2 34.3S59.2 74.7 40.4 74.7 6.2 59.4 6.2 40.5 21.6 6.2 40.4 6.2m0-6C18.2.2.1 18.2.1 40.5c0 22.2 18 40.2 40.3 40.2 22.2 0 40.2-18 40.2-40.2C80.7 18.2 62.7.2 40.4.2z"></path><path class="inner" fill="var(--background-color)" stroke="var(--stroke-color)" stroke-width="var(--stroke-width)" d="M40.4 15.9l-7.6 15.5-17.1 2.5L28.1 46l-2.9 17 15.3-8 15.3 8-2.9-17 12.4-12.1-17.1-2.5-7.8-15.5z"></path>
		</symbol>
	
		<symbol id="table_game" viewBox="0 0 495.5 329.8">
			<path class="st0" d="M276.8 328.1c-3.7.5-6.8 1.1-9.8 1.2-71.7 3.3-138.7-11.1-197.6-54.2-39.1-28.5-60-68-67.9-115.1-5.3-31.2 4.3-57.8 24.4-81.2C48 53 76.5 36.5 107.7 24.2 135.8 13 165 5.6 195.1 3 216.9 1.1 239-.6 260.9.2c57.4 2.1 112.4 14.3 162.4 43.9 23.4 13.8 43.8 31 57.8 54.7 21.4 36.4 17.8 76.5-9.7 110-21.3 25.9-49 42.8-79.5 55.5-29.8 12.4-60.8 20.1-92.9 23.4-10.2 1.1-20.5 1.8-30.8 3-1.4.2-3.8 2.3-3.6 3.1 1.8 8.7 3.6 17.5 6.2 26 .8 2.9 3.7 5.2 6 8.3zM256.5 251c6.2-.4 18.2-1.1 30.1-2.1 24.8-2 49-7.1 72.5-15.3 27.6-9.6 53.3-22.8 74-44.1 15.5-16 25.7-34.6 25.3-57.4-.4-21.5-9.9-39.4-24.4-54.8-20-21.2-44.8-34.9-71.8-44.8-49.1-18-99.8-23-151.7-18.1-26.8 2.5-52.9 7.9-78.1 17.2-27.2 10-52.1 23.7-72 45.3-28 30.5-29.8 68.7-4.6 101.3 17.2 22.2 40.4 36.5 65.7 47.5 41.1 18 84.6 24.8 135 25.3zM151.9 105.3l21 17.4c-3.5 2.6-6.3 5.1-9.5 7.1-1 .6-3.2.1-4.5-.6-6.1-3.4-12.2-6.9-18-10.7-3.3-2.2-5.7-1.9-8.1 1.1-1.7 2.1-3.7 4.1-6.2 6.8 9.9 4.3 18.9 8.3 28.3 12.4-1.8 3.2-2.9 6.2-4.9 8.6-.8 1-3.3 1.3-4.7.8-7.6-2.3-15.2-4.7-22.7-7.4-3.5-1.3-5.3-.4-6.1 3.2-.3 1.5-.7 2.9-1.2 4.3-1 3.1-.2 4.4 3.3 4.8 8.2 1 16.4 2.7 24.6 3.8 3.7.5 3.7 2 3 5.1-1.3 5.1-3.1 7.4-9.2 6.1-7.1-1.5-14.5-1.3-22.7-1.9 1.1 3.7 1.8 7.3 3.3 10.4.6 1.2 3.1 2.2 4.8 2.2 6 0 12-.3 18-.7 3.2-.2 5.3.7 6.6 3.8 1.1 2.5 2.9 4.7 4.9 7.7-8.6.6-16.5 1.2-26.2 1.9 4.5 4.4 7.9 7.8 11.6 11 .7.6 2.5.3 3.7 0 5.8-1.4 11.7-2.6 17.4-4.4 4.1-1.3 7.3-.9 10.5 2.1 2.1 2 4.7 3.5 8.1 5.9-7.9 2.9-14.8 5.5-23 8.6 5.7 2.7 10.2 5 14.8 7 1 .4 2.6-.1 3.7-.6 1.8-.8 3.7-1.8 5.1-3.1 8.8-8.7 17.7-5 27.4.1-3.7 3.9-7.2 7.7-11.6 12.3 6.9 1.4 13 2.8 19.2 3.5 1.2.2 3.5-1.9 4-3.4 2.6-7.1 6.5-11.4 14.8-8.4 1 .4 2.3.1 3.5.2 5.8.5 6.1 1 5 6.8-.4 2.4-.7 4.9-1 7.7h21.9c-.8-3.2-1.2-6.1-2.2-8.8-1.8-4.5.2-5.8 4.2-5.8.3 0 .7 0 1-.1 9.5-2.6 16.7-.6 20.1 9.7.3 1 2.4 2.2 3.4 2 5.8-1 11.6-2.4 18.3-3.9-4.6-4.3-8.6-7.9-12.6-11.6 6.3-5.8 15.3-6.9 21.7-2.9l1.3.8c11.8 7.3 14.3 7.2 26.4-1.8-6.9-3-13.5-5.9-20.1-8.8 4.6-7.1 9.7-9.2 17.2-7.3 4.2 1.1 8.6 1.8 12.5 3.4 5.6 2.4 9.5.9 12.9-3.7 1.5-2 3.3-3.9 5.7-6.6-10.4-1.1-19.7-2.1-29.1-3 2.2-9 3.8-10.4 12-10.2 7 .1 14 .5 21 .5 1.4 0 3.7-.7 4-1.7 1.1-2.9 1.5-6 2.1-9-1.7-.3-3.4-.9-5.1-.8-8.6.6-17.2 1.3-25.5 2-1.4-6.7-2.8-12.8-3.7-18.9-.1-.9 2-2.7 3.4-3.1 8.7-2.8 17.4-5.3 27.2-8.2-2.4-3.6-4.2-6.9-6.5-9.7-.6-.8-3-.7-4.3-.2-7.3 2.8-14.4 6-21.8 8.8-1.7.6-4.2.5-5.8-.3-2.7-1.3-2.1-3.8-1.5-6.5.8-4 3.1-6.3 6.6-8 4.3-2.1 8.5-4.5 13.9-7.4-4-2.8-7.3-5.1-10.6-7.4-5.1-3.5-6.9 3.2-10.6 3.4-3.7-3.3-7.5-6.3-10.9-9.6-.8-.8-.4-2.8-.7-5.2-4.2-1.5-9.1-3.4-14.2-4.8-1.2-.3-3.4.8-4.2 2-7.1 9.6-7 9.7-18.2 5.1-1.3-.5-2.6-1.3-3.8-1.8.3-4.8 2.3-7.1 6.9-7.8 3.5-.6 7.2-1.9 10-4 3.2-2.3 6-2.6 9.7-1.5 20.6 6.2 39.9 14.8 56.4 29 13.9 12 23.5 26.4 24.8 45.1 1 13.5-3.7 25.5-11.6 36.3-12.5 16.9-29.7 27.4-48.7 35.3-31.7 13.2-64.9 17-98.8 14.8-27.8-1.7-54.6-8-79.4-21.1-13.5-7.1-25.8-15.9-35.4-28-18-22.8-17.9-49.9.5-72.4 11.2-13.7 25.7-23 41.6-30.4 2.7-1.3 4.3-.7 6.2 1.7 6.1 7.6 13.6 10.9 23.4 7.2 1-.4 3.1 0 3.8.8 2.1 2.3 3.7 5 6.1 8.4-5.1 1.9-9.4 3.8-13.9 5.1-1 .3-2.9-1.2-4-2.3-4.4-4.4-8.5-9-12.9-13.3-1-.9-3.1-1.8-4.1-1.4-4.5 1.7-8.3 3.9-13 6.4zm110.4-6.7c10.6 4 20.4 7.7 30.2 11.3 2.5.9 5 1.7 7.4 2.9 5.1 2.4 9.6 3.9 13.5-2.2.8-1.3 4.7-1.8 6.6-1.1 6.5 2.3 10.5 10.6 8.8 17.1-1.9 7.6-9.4 13.7-16.2 13-5.1-.5-5.7-4.7-7-8.5-.5-1.6-1.6-3.8-3-4.3-15-5.5-30-10.8-45.1-16.1-.4-.2-1 0-1.1 0 0 5.9-.2 11.9.2 17.8.1 1.2 2.4 2.9 3.9 3.4 9.8 2.8 16.7 8.5 20 18.5 2.3 7.1 1.5 12.9-5 17-5.5 3.5-11.8 6.4-18.1 7.6-13 2.3-25.9 1.3-37.2-7-2-1.5-3.5-3.6-5.5-5.7 3-2 5.3-3.3 7.3-5 6-5.1 8.5-11.6 7.8-19.5-.1-1.6 1-4.3 2.3-5 8.7-4.1 8.8-4 8.2-14.6-6.7 5.4-12.9 10.4-19 15.7-.8.7-.6 2.8-.4 4.1 1.7 10.1-7.2 18-17 15.2-7.7-2.2-12.6-8.9-12.4-16.7.2-8.2 7.9-14.3 15.9-11.9 3.7 1.1 5.8.3 8.2-2.3 5.7-6.3 11.6-12.4 17.8-18.9C219.9 98 206 92.5 192.3 87c-.7.7-1.1 1.1-1.3 1.5-2.4 3.3-4.8 6.6-9.6 5.8-5.1-.8-8.3-4-10.1-8.7-3-7.8.6-17.5 7.8-21.1 7.5-3.7 14.8.3 15.3 8.6.2 3.2 1.2 4.5 4.4 5.4 13.9 3.9 27.6 8.1 42.4 12.5-5.9-5.3-7.1-10.8-4.6-17 2-5.1 7.4-8.1 12.8-7.9 6.5.3 9.7 3.5 13.6 14.3 3.3-2.7 6.7-5.1 9.6-8 1-1 1.3-3.3 1-4.8-1.2-8.8 3-15.2 11.1-16.3 7.8-1.1 16.1 5.7 16.8 13.8 1 10.9-7 17.7-17.7 15.2-1.4-.3-3.7.2-4.7 1.2-5.6 5.1-10.8 10.8-16.8 17.1zm9.3 26.4c8.2 3 16.4 5.8 24.5 9.1 1.3.5 2 2.9 2.8 4.5 3.7 7.7 7.9 10.4 16.3 9.4 4.1-.5 6.1 1 7.4 4.7 4.4 12.3 1.6 22.9-7.2 32.2-10.8 11.5-24.8 17.2-39.8 20.5-24.8 5.4-49.2 4.1-72.9-5.6-5.5-2.3-10.6-5.6-15.6-8.8-1-.7-1.8-3.5-1.3-4.6 9.6-17 6.8-27.8-9.9-37.8-.3-.2-.5-.4-1.3-1.2 2.2-2.6 4.4-5.3 7-8.5.9 1.6 1.4 2.2 1.6 2.9 2.4 10.4 8.9 16.8 19 19.9 1.3.4 2.9 1.2 3.5 2.3 6.1 11.7 16.6 16.8 28.8 19.4 12.9 2.8 25.5 1.9 37.6-3.5 21.4-9.6 24.3-34 6-48.9-2.2-1.7-4.5-3.3-6.8-4.9 0-.4.1-.7.3-1.1zm-89.3 45.8c-.1 8.4-6.5 14.9-14.8 14.8-8.1-.1-14.9-7.1-14.6-15.1.2-7.8 7-14.4 14.9-14.4s14.6 6.8 14.5 14.7z"></path>
		</symbol>
	
		<symbol id="video_pokers" viewBox="0 0 491.8 511.8">
			<path class="st0" d="M.5 428V65c.4-.9.8-1.8 1-2.8C5.2 48.5 15 40.5 29.1 39.7c4.2-.2 8.3-.1 12.5-.1 9.5 0 9.5 0 9.7-9.3.2-13.1 6.9-23.4 18.2-27.9 2.3-.9 4.7-1.6 7-2.4h245c21.6 6.1 25.4 19.9 25.2 37.4-.5 51-.2 102-.2 152.9v4.9c-14.4 1.1-28.1 2.1-42.7 3.2 2.4 12.4 4.6 23.5 6.8 34.8 16.7-3.8 32.7-2.8 48.8 0 2.3-11.4 4.4-22.1 6.7-33.4 46.6 10.4 81.3 36.2 105.8 77-10.2 5.9-20 11.4-28.7 16.4 5.2 15.9 10.2 31.1 15.3 46.8 10-1.1 21-2.3 32.2-3.6.7 3.8 1.3 7.2 1.8 10.5v17c-.3 1.6-.8 3.2-1 4.8-1.4 17.8-6 34.7-13.3 50.9-6.8 15.1-15.7 28.9-27.2 41.3l-25.6-23.5c-11.6 12.3-24.5 21.8-39.6 28.4 5 10.9 9.6 21.1 14.7 32.4-10.9 3.4-20.9 6.9-31.2 9.5-7.8 2-16 2.8-24 4.2h-21c-8-1.4-16.1-2.2-24-4.2-10.3-2.7-20.4-6.2-31.1-9.6 5.5-11.5 10.3-21.7 14.6-30.7l-40-28.8c-7.5 6.9-15.9 14.6-25 23-3.7-10-11.5-9-19.3-9-56.1.1-112.3.1-168.4 0-15 0-25.7-8.2-29.8-22.5 0-.6-.5-1.4-.8-2.1zm226.4-134.8c-8.9-5.1-18.7-10.7-28.6-16.3 15.8-26.9 36.6-47.7 63.8-61.8 3.2-1.7 4.5-3.5 4.5-7.3-.1-42.2-.1-84.3-.1-126.5 0-8.8-3.8-12.6-12.4-12.6H42.7c-9.4 0-13 3.5-13 13v328.4c0 10 3.5 13.5 13.6 13.5h144.5c1.7 0 3.4-.2 5.6-.4-12.4-28.1-18.4-56.5-14.2-86.8 11.6 1.3 22.6 2.5 32.3 3.6 5.3-15.9 10.2-30.9 15.4-46.8zM429 354.4c-.4-52.8-42.5-93.9-95.5-93.4-51.3.5-92.8 42.7-92.4 94 .4 52.5 42.4 93.9 94.9 93.5 51.5-.4 93.4-42.9 93-94.1zM148.4 221.2c3.3-3.8 5.7-7 8.5-9.8 9.4-8.9 23.1-9 31.9-.4 9.1 8.9 10.1 23.3 1.3 32.4-13.8 14.4-28.3 28.2-42.7 42.5-1-.8-2.1-1.7-3.1-2.7-12.5-12.5-25-24.9-37.4-37.4-10.3-10.4-10.8-24.9-1.2-34.3s24.7-9 34.9 1c2.2 2.5 4.4 5 7.8 8.7zm191.2 145.4c-2.4 10.2 3.8 21.2 14.4 27 1.4.8 2.6 2 3.5 4-15.1-4.2-29.7-3.8-44.4.8l-.8-1.8c1.4-1.1 2.8-2.4 4.3-3.3 10.1-5.7 14.9-14.2 14.8-27.2-3.3 2.8-5.8 5-8.4 7.1-9.9 8.1-23.2 7.4-31.5-1.8-7.8-8.6-8.2-21.9-.1-30 13.9-14.1 28.3-27.7 42.8-41.8 1.4 1.2 2.7 2.2 3.9 3.3 12.7 12 25.5 24 38.2 35.9 10.1 9.5 10.9 23.3 1.9 32.9-8.5 9.2-22.1 9.4-32.3.4-2-1.6-4-3.5-6.3-5.5zM113.1 157.3H99.5l-5.4-14.1H69.2l-5.1 14.1H50.8L75.1 95h13.3l24.7 62.3zM90 132.6l-8.6-23.1-8.4 23.1h17z"></path>
		</symbol>
	
</svg>